<?xml version="1.0" encoding="UTF-8" standalone="no"?>
<!DOCTYPE svg PUBLIC "-//W3C//DTD SVG 1.1//EN"
 "http://www.w3.org/Graphics/SVG/1.1/DTD/svg11.dtd">
<!-- Generated by graphviz version 2.42.3 (20191010.1750)
 -->
<!-- Title: snakemake_dag Pages: 1 -->
<svg width="404pt" height="476pt"
 viewBox="0.00 0.00 404.00 476.00" xmlns="http://www.w3.org/2000/svg" xmlns:xlink="http://www.w3.org/1999/xlink">
<g id="graph0" class="graph" transform="scale(1 1) rotate(0) translate(4 472)">
<title>snakemake_dag</title>
<polygon fill="white" stroke="transparent" points="-4,4 -4,-472 400,-472 400,4 -4,4"/>
<!-- 0 -->
<g id="node1" class="node">
<title>0</title>
<path fill="none" stroke="#80d856" stroke-width="2" d="M210.5,-36C210.5,-36 180.5,-36 180.5,-36 174.5,-36 168.5,-30 168.5,-24 168.5,-24 168.5,-12 168.5,-12 168.5,-6 174.5,0 180.5,0 180.5,0 210.5,0 210.5,0 216.5,0 222.5,-6 222.5,-12 222.5,-12 222.5,-24 222.5,-24 222.5,-30 216.5,-36 210.5,-36"/>
<text text-anchor="middle" x="195.5" y="-15.5" font-family="sans" font-size="10.00">all</text>
</g>
<!-- 1 -->
<g id="node2" class="node">
<title>1</title>
<path fill="none" stroke="#d88556" stroke-width="2" d="M237.5,-108C237.5,-108 153.5,-108 153.5,-108 147.5,-108 141.5,-102 141.5,-96 141.5,-96 141.5,-84 141.5,-84 141.5,-78 147.5,-72 153.5,-72 153.5,-72 237.5,-72 237.5,-72 243.5,-72 249.5,-78 249.5,-84 249.5,-84 249.5,-96 249.5,-96 249.5,-102 243.5,-108 237.5,-108"/>
<text text-anchor="middle" x="195.5" y="-87.5" font-family="sans" font-size="10.00">visualise_separate</text>
</g>
<!-- 1&#45;&gt;0 -->
<g id="edge1" class="edge">
<title>1&#45;&gt;0</title>
<path fill="none" stroke="grey" stroke-width="2" d="M195.5,-71.7C195.5,-63.98 195.5,-54.71 195.5,-46.11"/>
<polygon fill="grey" stroke="grey" stroke-width="2" points="199,-46.1 195.5,-36.1 192,-46.1 199,-46.1"/>
</g>
<!-- 2 -->
<g id="node3" class="node">
<title>2</title>
<path fill="none" stroke="#56d882" stroke-width="2" d="M174,-180C174,-180 131,-180 131,-180 125,-180 119,-174 119,-168 119,-168 119,-156 119,-156 119,-150 125,-144 131,-144 131,-144 174,-144 174,-144 180,-144 186,-150 186,-156 186,-156 186,-168 186,-168 186,-174 180,-180 174,-180"/>
<text text-anchor="middle" x="152.5" y="-159.5" font-family="sans" font-size="10.00">vireo_GEX</text>
</g>
<!-- 2&#45;&gt;1 -->
<g id="edge2" class="edge">
<title>2&#45;&gt;1</title>
<path fill="none" stroke="grey" stroke-width="2" d="M163.13,-143.7C168.13,-135.56 174.19,-125.69 179.71,-116.7"/>
<polygon fill="grey" stroke="grey" stroke-width="2" points="182.74,-118.46 184.99,-108.1 176.78,-114.79 182.74,-118.46"/>
</g>
<!-- 3 -->
<g id="node4" class="node">
<title>3</title>
<path fill="none" stroke="#59d856" stroke-width="2" d="M263,-180C263,-180 216,-180 216,-180 210,-180 204,-174 204,-168 204,-168 204,-156 204,-156 204,-150 210,-144 216,-144 216,-144 263,-144 263,-144 269,-144 275,-150 275,-156 275,-156 275,-168 275,-168 275,-174 269,-180 263,-180"/>
<text text-anchor="middle" x="239.5" y="-159.5" font-family="sans" font-size="10.00">vireo_ATAC</text>
</g>
<!-- 3&#45;&gt;1 -->
<g id="edge3" class="edge">
<title>3&#45;&gt;1</title>
<path fill="none" stroke="grey" stroke-width="2" d="M228.62,-143.7C223.51,-135.56 217.3,-125.69 211.66,-116.7"/>
<polygon fill="grey" stroke="grey" stroke-width="2" points="214.54,-114.71 206.25,-108.1 208.61,-118.43 214.54,-114.71"/>
</g>
<!-- 4 -->
<g id="node5" class="node">
<title>4</title>
<path fill="none" stroke="#d6d856" stroke-width="2" d="M104,-252C104,-252 33,-252 33,-252 27,-252 21,-246 21,-240 21,-240 21,-228 21,-228 21,-222 27,-216 33,-216 33,-216 104,-216 104,-216 110,-216 116,-222 116,-228 116,-228 116,-240 116,-240 116,-246 110,-252 104,-252"/>
<text text-anchor="middle" x="68.5" y="-231.5" font-family="sans" font-size="10.00">cellsnp_1A_GEX</text>
</g>
<!-- 4&#45;&gt;2 -->
<g id="edge4" class="edge">
<title>4&#45;&gt;2</title>
<path fill="none" stroke="grey" stroke-width="2" d="M89.26,-215.7C99.74,-206.97 112.61,-196.24 124,-186.75"/>
<polygon fill="grey" stroke="grey" stroke-width="2" points="126.53,-189.19 131.97,-180.1 122.05,-183.82 126.53,-189.19"/>
</g>
<!-- 5 -->
<g id="node6" class="node">
<title>5</title>
<path fill="none" stroke="#d8ac56" stroke-width="2" d="M247,-252C247,-252 146,-252 146,-252 140,-252 134,-246 134,-240 134,-240 134,-228 134,-228 134,-222 140,-216 146,-216 146,-216 247,-216 247,-216 253,-216 259,-222 259,-228 259,-228 259,-240 259,-240 259,-246 253,-252 247,-252"/>
<text text-anchor="middle" x="196.5" y="-231.5" font-family="sans" font-size="10.00">merge_longread_VCFs</text>
</g>
<!-- 5&#45;&gt;2 -->
<g id="edge5" class="edge">
<title>5&#45;&gt;2</title>
<path fill="none" stroke="grey" stroke-width="2" d="M185.62,-215.7C180.51,-207.56 174.3,-197.69 168.66,-188.7"/>
<polygon fill="grey" stroke="grey" stroke-width="2" points="171.54,-186.71 163.25,-180.1 165.61,-190.43 171.54,-186.71"/>
</g>
<!-- 5&#45;&gt;3 -->
<g id="edge7" class="edge">
<title>5&#45;&gt;3</title>
<path fill="none" stroke="grey" stroke-width="2" d="M207.13,-215.7C212.13,-207.56 218.19,-197.69 223.71,-188.7"/>
<polygon fill="grey" stroke="grey" stroke-width="2" points="226.74,-190.46 228.99,-180.1 220.78,-186.79 226.74,-190.46"/>
</g>
<!-- 6 -->
<g id="node7" class="node">
<title>6</title>
<path fill="none" stroke="#5682d8" stroke-width="2" d="M364,-252C364,-252 289,-252 289,-252 283,-252 277,-246 277,-240 277,-240 277,-228 277,-228 277,-222 283,-216 289,-216 289,-216 364,-216 364,-216 370,-216 376,-222 376,-228 376,-228 376,-240 376,-240 376,-246 370,-252 364,-252"/>
<text text-anchor="middle" x="326.5" y="-231.5" font-family="sans" font-size="10.00">cellsnp_1A_ATAC</text>
</g>
<!-- 6&#45;&gt;3 -->
<g id="edge6" class="edge">
<title>6&#45;&gt;3</title>
<path fill="none" stroke="grey" stroke-width="2" d="M304.99,-215.7C294.04,-206.88 280.55,-196.03 268.68,-186.47"/>
<polygon fill="grey" stroke="grey" stroke-width="2" points="270.74,-183.65 260.76,-180.1 266.36,-189.1 270.74,-183.65"/>
</g>
<!-- 7 -->
<g id="node8" class="node">
<title>7</title>
<path fill="none" stroke="#afd856" stroke-width="2" d="M83,-324C83,-324 12,-324 12,-324 6,-324 0,-318 0,-312 0,-312 0,-300 0,-300 0,-294 6,-288 12,-288 12,-288 83,-288 83,-288 89,-288 95,-294 95,-300 95,-300 95,-312 95,-312 95,-318 89,-324 83,-324"/>
<text text-anchor="middle" x="47.5" y="-303.5" font-family="sans" font-size="10.00">cellsnp_2B_GEX</text>
</g>
<!-- 7&#45;&gt;4 -->
<g id="edge8" class="edge">
<title>7&#45;&gt;4</title>
<path fill="none" stroke="grey" stroke-width="2" d="M52.69,-287.7C55.03,-279.9 57.85,-270.51 60.45,-261.83"/>
<polygon fill="grey" stroke="grey" stroke-width="2" points="63.85,-262.69 63.37,-252.1 57.14,-260.68 63.85,-262.69"/>
</g>
<!-- 8 -->
<g id="node9" class="node">
<title>8</title>
<path fill="none" stroke="#56d8d8" stroke-width="2" d="M237,-468C237,-468 154,-468 154,-468 148,-468 142,-462 142,-456 142,-456 142,-444 142,-444 142,-438 148,-432 154,-432 154,-432 237,-432 237,-432 243,-432 249,-438 249,-444 249,-444 249,-456 249,-456 249,-462 243,-468 237,-468"/>
<text text-anchor="middle" x="195.5" y="-447.5" font-family="sans" font-size="10.00">prepare_bam_files</text>
</g>
<!-- 8&#45;&gt;4 -->
<g id="edge9" class="edge">
<title>8&#45;&gt;4</title>
<path fill="none" stroke="grey" stroke-width="2" d="M190.1,-431.87C179.88,-401.13 155.68,-335.42 121.5,-288 114.14,-277.79 104.78,-267.74 95.99,-259.17"/>
<polygon fill="grey" stroke="grey" stroke-width="2" points="98.13,-256.39 88.46,-252.07 93.33,-261.48 98.13,-256.39"/>
</g>
<!-- 8&#45;&gt;6 -->
<g id="edge12" class="edge">
<title>8&#45;&gt;6</title>
<path fill="none" stroke="grey" stroke-width="2" d="M201.93,-431.93C208.98,-413.77 220.95,-384.34 233.5,-360 250.69,-326.67 254.88,-317.91 277.5,-288 284.87,-278.26 293.72,-268.25 301.87,-259.6"/>
<polygon fill="grey" stroke="grey" stroke-width="2" points="304.4,-262.02 308.79,-252.38 299.35,-257.17 304.4,-262.02"/>
</g>
<!-- 9 -->
<g id="node10" class="node">
<title>9</title>
<path fill="none" stroke="#56d8a9" stroke-width="2" d="M136.5,-396C136.5,-396 80.5,-396 80.5,-396 74.5,-396 68.5,-390 68.5,-384 68.5,-384 68.5,-372 68.5,-372 68.5,-366 74.5,-360 80.5,-360 80.5,-360 136.5,-360 136.5,-360 142.5,-360 148.5,-366 148.5,-372 148.5,-372 148.5,-384 148.5,-384 148.5,-390 142.5,-396 136.5,-396"/>
<text text-anchor="middle" x="108.5" y="-375.5" font-family="sans" font-size="10.00">prepare_GEX</text>
</g>
<!-- 8&#45;&gt;9 -->
<g id="edge15" class="edge">
<title>8&#45;&gt;9</title>
<path fill="none" stroke="grey" stroke-width="2" d="M173.99,-431.7C163.04,-422.88 149.55,-412.03 137.68,-402.47"/>
<polygon fill="grey" stroke="grey" stroke-width="2" points="139.74,-399.65 129.76,-396.1 135.36,-405.1 139.74,-399.65"/>
</g>
<!-- 11 -->
<g id="node12" class="node">
<title>11</title>
<path fill="none" stroke="#56a9d8" stroke-width="2" d="M314.5,-396C314.5,-396 254.5,-396 254.5,-396 248.5,-396 242.5,-390 242.5,-384 242.5,-384 242.5,-372 242.5,-372 242.5,-366 248.5,-360 254.5,-360 254.5,-360 314.5,-360 314.5,-360 320.5,-360 326.5,-366 326.5,-372 326.5,-372 326.5,-384 326.5,-384 326.5,-390 320.5,-396 314.5,-396"/>
<text text-anchor="middle" x="284.5" y="-375.5" font-family="sans" font-size="10.00">prepare_ATAC</text>
</g>
<!-- 8&#45;&gt;11 -->
<g id="edge17" class="edge">
<title>8&#45;&gt;11</title>
<path fill="none" stroke="grey" stroke-width="2" d="M217.5,-431.7C228.71,-422.88 242.5,-412.03 254.65,-402.47"/>
<polygon fill="grey" stroke="grey" stroke-width="2" points="257.06,-405.04 262.75,-396.1 252.73,-399.54 257.06,-405.04"/>
</g>
<!-- 9&#45;&gt;4 -->
<g id="edge10" class="edge">
<title>9&#45;&gt;4</title>
<path fill="none" stroke="grey" stroke-width="2" d="M110.14,-359.78C111.29,-341.48 111.43,-311.95 103.5,-288 100.31,-278.37 94.89,-268.81 89.25,-260.52"/>
<polygon fill="grey" stroke="grey" stroke-width="2" points="92.08,-258.45 83.39,-252.39 86.4,-262.55 92.08,-258.45"/>
</g>
<!-- 9&#45;&gt;7 -->
<g id="edge14" class="edge">
<title>9&#45;&gt;7</title>
<path fill="none" stroke="grey" stroke-width="2" d="M93.42,-359.7C86.11,-351.3 77.19,-341.07 69.16,-331.86"/>
<polygon fill="grey" stroke="grey" stroke-width="2" points="71.61,-329.34 62.41,-324.1 66.34,-333.94 71.61,-329.34"/>
</g>
<!-- 10 -->
<g id="node11" class="node">
<title>10</title>
<path fill="none" stroke="#d85656" stroke-width="2" d="M384,-324C384,-324 309,-324 309,-324 303,-324 297,-318 297,-312 297,-312 297,-300 297,-300 297,-294 303,-288 309,-288 309,-288 384,-288 384,-288 390,-288 396,-294 396,-300 396,-300 396,-312 396,-312 396,-318 390,-324 384,-324"/>
<text text-anchor="middle" x="346.5" y="-303.5" font-family="sans" font-size="10.00">cellsnp_2B_ATAC</text>
</g>
<!-- 10&#45;&gt;6 -->
<g id="edge11" class="edge">
<title>10&#45;&gt;6</title>
<path fill="none" stroke="grey" stroke-width="2" d="M341.56,-287.7C339.33,-279.9 336.65,-270.51 334.17,-261.83"/>
<polygon fill="grey" stroke="grey" stroke-width="2" points="337.5,-260.76 331.39,-252.1 330.77,-262.68 337.5,-260.76"/>
</g>
<!-- 11&#45;&gt;6 -->
<g id="edge13" class="edge">
<title>11&#45;&gt;6</title>
<path fill="none" stroke="grey" stroke-width="2" d="M282.43,-359.73C280.88,-341.39 280.25,-311.82 288.5,-288 291.91,-278.15 297.78,-268.54 303.9,-260.26"/>
<polygon fill="grey" stroke="grey" stroke-width="2" points="306.84,-262.18 310.28,-252.16 301.34,-257.85 306.84,-262.18"/>
</g>
<!-- 11&#45;&gt;10 -->
<g id="edge16" class="edge">
<title>11&#45;&gt;10</title>
<path fill="none" stroke="grey" stroke-width="2" d="M299.83,-359.7C307.26,-351.3 316.32,-341.07 324.48,-331.86"/>
<polygon fill="grey" stroke="grey" stroke-width="2" points="327.34,-333.91 331.35,-324.1 322.1,-329.27 327.34,-333.91"/>
</g>
</g>
</svg>
